<?xml version="1.0" encoding="iso-8859-1"?>
<!-- Generator: Adobe Illustrator 16.0.0, SVG Export Plug-In . SVG Version: 6.00 Build 0)  -->
<!DOCTYPE svg PUBLIC "-//W3C//DTD SVG 1.1//EN" "http://www.w3.org/Graphics/SVG/1.1/DTD/svg11.dtd">
<svg version="1.1" id="Capa_1" xmlns="http://www.w3.org/2000/svg" xmlns:xlink="http://www.w3.org/1999/xlink" x="0px" y="0px"
	 width="447.107px" height="447.107px" viewBox="0 0 447.107 447.107" style="enable-background:new 0 0 447.107 447.107;"
	 xml:space="preserve">
<g>
	<g id="Layer_8_36_">
		<path d="M230.174,172.379c-42.26,0-76.531,34.263-76.531,76.529c0,42.275,34.267,76.529,76.531,76.529
			c42.276,0,76.532-34.265,76.532-76.529C306.706,206.647,272.45,172.379,230.174,172.379z M230.174,285.039
			c-19.953,0-36.12-16.182-36.12-36.126c0-19.956,16.172-36.124,36.12-36.124c19.951,0,36.126,16.168,36.126,36.124
			C266.3,268.857,250.125,285.039,230.174,285.039z M257.425,254.357c-2.923,12.049-9.946,20.685-15.704,19.294
			c-1.942-0.471-3.479-2.036-4.553-4.355c5.143-1.149,10.67-8.952,13.187-19.278c1.929-7.982,1.565-15.447-0.569-19.978
			c0.844-0.187,1.699-0.208,2.507-0.012C258.045,231.408,260.342,242.312,257.425,254.357z M74.806,331.885
			c-6.182,5.926-6.384,15.743-0.455,21.911c5.923,6.177,15.735,6.379,21.91,0.458c6.173-5.93,6.38-15.748,0.46-21.921
			C90.797,326.16,80.986,325.955,74.806,331.885z M89.675,348.642c-2.739,2.625-7.104,2.537-9.737-0.21
			c-2.635-2.746-2.54-7.103,0.208-9.74c2.738-2.627,7.104-2.539,9.737,0.208C92.519,341.646,92.428,346.008,89.675,348.642z
			 M439.439,125.847h-8.416v-10.72c0-3.384-2.729-6.123-6.117-6.123H290.942l-5.261-46.425c0-3.384-2.735-6.123-6.126-6.123H167.928
			c-3.385,0-6.126,2.739-6.126,6.123l-5.271,46.425H90.46V98.29H52.194v10.715H22.575c-3.385,0-6.124,2.739-6.124,6.123v10.714
			H7.655c-3.532,0-7.655,0.92-7.655,3.502v12.09c0,2.585,4.123,3.502,7.655,3.502h8.796V384.52c0,3.387,2.739,6.131,6.124,6.131
			h402.336c3.384,0,6.12-2.744,6.12-6.131V144.937h8.425c3.537,0,7.651-0.917,7.651-3.502v-12.09
			C447.103,126.762,442.98,125.847,439.439,125.847z M16.452,141.878H7.655c-2.415,0-4.041-0.471-4.59-0.805v-11.365
			c0.555-0.331,2.18-0.807,4.59-0.807h8.796V141.878z M174.8,67.681h98.723v24.484H174.8V67.681z M125.654,306.735L106.72,350.5
			c-0.188,0.495-0.402,0.985-0.631,1.467l-0.819,1.904c-0.245,0.569-0.6,1.073-1.042,1.499c-0.091,0.088-0.208,0.131-0.31,0.219
			c-0.738,1.009-1.541,1.961-2.465,2.846c-8.802,8.449-22.793,8.155-31.244-0.646c-8.449-8.811-8.157-22.803,0.645-31.245
			c0.878-0.837,1.823-1.57,2.792-2.238c0.336-0.334,0.705-0.629,1.137-0.849l44.579-22.621c1.73-0.875,3.821-0.585,5.228,0.745
			C125.997,302.916,126.428,304.952,125.654,306.735z M230.007,349.833c-55.234,0-100.008-44.772-100.008-100.007
			c0-55.231,44.769-100.008,100.008-100.008c55.216,0,99.998,44.771,99.998,100.008
			C330.005,305.061,285.233,349.833,230.007,349.833z M377.458,165.643c-9.718,0-17.608-7.88-17.608-17.606
			c0-9.721,7.874-17.606,17.608-17.606c9.729,0,17.611,7.885,17.611,17.606C395.051,157.758,387.179,165.643,377.458,165.643z
			 M444.053,141.073c-0.569,0.329-2.188,0.805-4.597,0.805h-8.425v-12.972h8.425c2.418,0,4.038,0.476,4.597,0.807V141.073z"/>
	</g>
</g>
<g>
</g>
<g>
</g>
<g>
</g>
<g>
</g>
<g>
</g>
<g>
</g>
<g>
</g>
<g>
</g>
<g>
</g>
<g>
</g>
<g>
</g>
<g>
</g>
<g>
</g>
<g>
</g>
<g>
</g>
</svg>
